<svg width="432" height="583" viewBox="0 0 432 583" fill="none" xmlns="http://www.w3.org/2000/svg">
<path d="M0 583V574.061C0 565.219 0 547.34 0 529.753C0 512.068 0 494.578 0 476.894C0 459.307 0 441.428 0 423.841C0 406.157 0 388.667 0 370.982C0 353.395 0 335.517 0 317.929C0 300.245 0 282.755 0 265.071C0 247.483 0 229.605 0 212.018C0 194.333 0 176.843 0 159.159C0 141.572 0 123.693 0 106.106C0 88.4217 0 70.9317 0 53.2473C0 35.6602 0 17.7815 0 8.93933V0H403.2L386.4 8.93933C369.6 17.7815 336 35.6602 331.2 53.2473C326.4 70.9317 350.4 88.4217 352.8 106.106C355.2 123.693 336 141.572 324 159.159C312 176.843 307.2 194.333 328.8 212.018C350.4 229.605 398.4 247.483 415.2 265.071C432 282.755 417.6 300.245 408 317.929C398.4 335.517 393.6 353.395 400.8 370.982C408 388.667 427.2 406.157 422.4 423.841C417.6 441.428 388.8 459.307 360 476.894C331.2 494.578 302.4 512.068 314.4 529.753C326.4 547.34 379.2 565.219 405.6 574.061L432 583H0Z" fill="#2E2A2B"/>
</svg>
