<svg width="23" height="23" viewBox="0 0 23 23" fill="none" xmlns="http://www.w3.org/2000/svg">
<path d="M22.9634 12.4278V0H0V22.9634H22.9634V16.2636C22.9122 16.2636 22.9634 12.4278 22.9634 12.4278Z" fill="#006FCF"/>
<path d="M20.1505 11.1492H21.8893V7.10889H19.997V7.67146L19.639 7.10889H18.0025V7.82489L17.6956 7.10889H14.6781C14.5758 7.10889 14.4736 7.16003 14.3713 7.16003C14.269 7.16003 14.2178 7.21117 14.1156 7.26232C14.0133 7.31346 13.9621 7.31346 13.8598 7.3646V7.10889H5.21662L4.9609 7.77375L4.70519 7.10889H2.65945V7.82489L2.35259 7.10889H0.716007L0 8.84776V11.1492H1.1763L1.38087 10.5866H1.79002L1.99459 11.1492H10.9958V10.6378L11.3538 11.1492H13.8598V10.8424C13.911 10.8935 14.0133 10.8935 14.0644 10.9446C14.1156 10.9958 14.2178 10.9958 14.269 11.0469C14.3713 11.0981 14.4736 11.0981 14.5758 11.0981H16.417L16.6216 10.5355H17.0307L17.2353 11.0981H19.7413V10.5866L20.1505 11.1492ZM22.9634 16.2635V12.4789H8.89894L8.54094 12.9904L8.18293 12.4789H4.09147V16.5193H8.18293L8.54094 16.0078L8.89894 16.5193H11.4561V15.6498H11.3538C11.7118 15.6498 12.0187 15.5987 12.2744 15.4964V16.5704H14.1156V16.059L14.4736 16.5704H22.0939C22.4008 16.4681 22.7076 16.417 22.9634 16.2635Z" fill="white"/>
<path d="M22.0939 15.292H20.713V15.8546H22.0428C22.6053 15.8546 22.9634 15.4966 22.9634 14.9851C22.9634 14.4737 22.6565 14.218 22.1451 14.218H21.5313C21.3779 14.218 21.2756 14.1157 21.2756 13.9623C21.2756 13.8088 21.3779 13.7066 21.5313 13.7066H22.7076L22.9634 13.144H21.5825C21.0199 13.144 20.6619 13.502 20.6619 13.9623C20.6619 14.4737 20.9688 14.7294 21.4802 14.7294H22.0939C22.2473 14.7294 22.3496 14.8317 22.3496 14.9851C22.4008 15.1897 22.2985 15.292 22.0939 15.292ZM19.5879 15.292H18.207V15.8546H19.5367C20.0993 15.8546 20.4573 15.4966 20.4573 14.9851C20.4573 14.4737 20.1505 14.218 19.639 14.218H19.0253C18.8719 14.218 18.7696 14.1157 18.7696 13.9623C18.7696 13.8088 18.8719 13.7066 19.0253 13.7066H20.2016L20.4573 13.144H19.0765C18.5139 13.144 18.1559 13.502 18.1559 13.9623C18.1559 14.4737 18.4627 14.7294 18.9742 14.7294H19.5879C19.7413 14.7294 19.8436 14.8317 19.8436 14.9851C19.8948 15.1897 19.7413 15.292 19.5879 15.292ZM17.7979 13.6554V13.0928H15.6499V15.8034H17.7979V15.2409H16.2636V14.6783H17.7467V14.1157H16.2636V13.6043H17.7979V13.6554ZM14.3201 13.6554C14.5758 13.6554 14.6781 13.8088 14.6781 13.9623C14.6781 14.1157 14.5758 14.2691 14.3201 14.2691H13.553V13.6043L14.3201 13.6554ZM13.553 14.8317H13.8598L14.6781 15.8034H15.4453L14.5247 14.7806C14.985 14.6783 15.2407 14.3714 15.2407 13.9623C15.2407 13.4508 14.8827 13.0928 14.3201 13.0928H12.8881V15.8034H13.5018L13.553 14.8317ZM11.9164 14.0134C11.9164 14.218 11.8141 14.3714 11.5584 14.3714H10.7401V13.6554H11.5072C11.763 13.6554 11.9164 13.8088 11.9164 14.0134ZM10.1264 13.0928V15.8034H10.7401V14.8828H11.5584C12.121 14.8828 12.5301 14.5248 12.5301 13.9623C12.5301 13.4508 12.1721 13.0417 11.6095 13.0417L10.1264 13.0928ZM9.2058 15.8034H9.97295L8.89894 14.4226L9.97295 13.0928H9.2058L8.54094 13.9623L7.87607 13.0928H7.10892L8.18293 14.4226L7.10892 15.7523H7.87607L8.54094 14.8828L9.2058 15.8034ZM6.90435 13.6554V13.0928H4.75633V15.8034H6.90435V15.2409H5.37005V14.6783H6.85321V14.1157H5.37005V13.6043H6.90435V13.6554ZM19.3322 8.84794L20.4062 10.4845H21.1733V7.77393H20.5596V9.56394L20.4062 9.30823L19.4345 7.77393H18.6162V10.4845H19.2299V8.64336L19.3322 8.84794ZM16.6727 8.79679L16.8773 8.23421L17.0819 8.79679L17.3376 9.41051H16.417L16.6727 8.79679ZM17.7467 10.4845H18.4116L17.2353 7.77393H16.417L15.2407 10.4845H15.9056L16.1613 9.92194H17.491L17.7467 10.4845ZM14.8827 10.4845L15.1384 9.92194H14.985C14.5247 9.92194 14.269 9.61509 14.269 9.15479V9.10365C14.269 8.64336 14.5247 8.3365 14.985 8.3365H15.6499V7.77393H14.9339C14.1156 7.77393 13.6553 8.3365 13.6553 9.10365V9.15479C13.6553 9.97309 14.1156 10.4845 14.8827 10.4845ZM12.5813 10.4845H13.195V7.82507H12.5813V10.4845ZM11.2515 8.3365C11.5072 8.3365 11.6095 8.48993 11.6095 8.64336C11.6095 8.79679 11.5072 8.95022 11.2515 8.95022H10.4844V8.28536L11.2515 8.3365ZM10.4844 9.5128H10.7912L11.6095 10.4845H12.3767L11.4561 9.46165C11.9164 9.35937 12.1721 9.05251 12.1721 8.64336C12.1721 8.13193 11.8141 7.77393 11.2515 7.77393H9.81952V10.4845H10.4332L10.4844 9.5128ZM9.35923 8.3365V7.77393H7.21121V10.4845H9.35923V9.92194H7.82493V9.35937H9.30808V8.79679H7.82493V8.28536H9.35923V8.3365ZM4.70519 10.4845H5.26776L6.03491 8.28536V10.4845H6.64863V7.77393H5.62577L5.01205 9.61509L4.39833 7.77393H3.37546V10.4845H3.98918V8.28536L4.70519 10.4845ZM1.38087 8.79679L1.58544 8.23421L1.79002 8.79679L2.04573 9.41051H1.12515L1.38087 8.79679ZM2.45488 10.4845H3.11974L1.94345 7.77393H1.1763L0 10.4845H0.664863L0.92058 9.92194H2.25031L2.45488 10.4845Z" fill="#006FCF"/>
</svg>
