<svg width="30" height="25" viewBox="0 0 30 25" fill="none" xmlns="http://www.w3.org/2000/svg">
<path d="M29.6354 13.3851L18.3854 24.6351C18.1508 24.8696 17.8327 25.0014 17.501 25.0014C17.1693 25.0014 16.8512 24.8696 16.6166 24.6351C16.3821 24.4005 16.2503 24.0824 16.2503 23.7507C16.2503 23.419 16.3821 23.1009 16.6166 22.8663L25.7338 13.7507H1.25098C0.919456 13.7507 0.601514 13.619 0.367093 13.3846C0.132673 13.1502 0.000976562 12.8322 0.000976562 12.5007C0.000976562 12.1692 0.132673 11.8512 0.367093 11.6168C0.601514 11.3824 0.919456 11.2507 1.25098 11.2507H25.7338L16.6166 2.13507C16.3821 1.90052 16.2503 1.5824 16.2503 1.25069C16.2503 0.91899 16.3821 0.600871 16.6166 0.36632C16.8512 0.131769 17.1693 0 17.501 0C17.8327 0 18.1508 0.131769 18.3854 0.36632L29.6354 11.6163C29.7516 11.7324 29.8438 11.8703 29.9067 12.022C29.9696 12.1738 30.002 12.3364 30.002 12.5007C30.002 12.665 29.9696 12.8276 29.9067 12.9794C29.8438 13.1311 29.7516 13.269 29.6354 13.3851Z" fill="#2E2A2B"/>
</svg>
