<svg width="30" height="25" viewBox="0 0 30 25" fill="none" xmlns="http://www.w3.org/2000/svg">
<path d="M30.001 12.5007C30.001 12.8322 29.8693 13.1502 29.6349 13.3846C29.4004 13.619 29.0825 13.7507 28.751 13.7507H4.26817L13.3854 22.8663C13.5015 22.9825 13.5936 23.1203 13.6565 23.2721C13.7193 23.4238 13.7517 23.5865 13.7517 23.7507C13.7517 23.9149 13.7193 24.0776 13.6565 24.2293C13.5936 24.3811 13.5015 24.5189 13.3854 24.6351C13.2692 24.7512 13.1313 24.8433 12.9796 24.9062C12.8279 24.969 12.6652 25.0014 12.501 25.0014C12.3367 25.0014 12.1741 24.969 12.0224 24.9062C11.8706 24.8433 11.7327 24.7512 11.6166 24.6351L0.366608 13.3851C0.250388 13.269 0.158189 13.1311 0.0952837 12.9794C0.0323783 12.8276 0 12.665 0 12.5007C0 12.3364 0.0323783 12.1738 0.0952837 12.022C0.158189 11.8703 0.250388 11.7324 0.366608 11.6163L11.6166 0.36632C11.8512 0.131769 12.1693 -2.47139e-09 12.501 0C12.8327 2.4714e-09 13.1508 0.131769 13.3854 0.36632C13.6199 0.600871 13.7517 0.91899 13.7517 1.25069C13.7517 1.5824 13.6199 1.90052 13.3854 2.13507L4.26817 11.2507H28.751C29.0825 11.2507 29.4004 11.3824 29.6349 11.6168C29.8693 11.8512 30.001 12.1692 30.001 12.5007Z" fill="#2E2A2B"/>
</svg>
