<svg width="27" height="26" viewBox="0 0 27 26" fill="none" xmlns="http://www.w3.org/2000/svg">
<g clip-path="url(#clip0_1628_331)">
<path d="M21.293 13.1343C23.8691 13.1343 26.0438 10.9995 26.0438 8.41871C26.0438 5.8379 23.8969 3.70264 21.293 3.70264C18.6981 3.70264 16.5512 5.8379 16.5512 8.41871C16.5512 11.0178 18.6981 13.1343 21.293 13.1343ZM8.49579 18.9272H19.3889C19.7525 18.9272 20.0699 18.6303 20.0699 18.2308C20.0699 17.8321 19.7525 17.5348 19.3889 17.5348H8.65469C8.12233 17.5348 7.79556 17.1634 7.71207 16.5973L7.57157 15.6223H19.4073C20.3782 15.6223 21.0035 15.2138 21.3581 14.4156C20.5555 14.4156 19.7992 14.258 19.0994 13.9513C18.9594 14.137 18.782 14.2205 18.5204 14.2205L7.35701 14.2299L6.56386 8.84594H15.3002C15.2539 8.41871 15.2818 7.86157 15.3469 7.44415H6.35828L6.1904 6.26469C6.08761 5.5504 5.8358 5.1879 4.88375 5.1879H1.59803C1.22458 5.1879 0.907227 5.5129 0.907227 5.88433C0.907227 6.26469 1.22458 6.58969 1.59803 6.58969H4.75268L6.24651 16.783C6.44222 18.1013 7.14245 18.9272 8.49579 18.9272ZM21.302 11.4821C20.9757 11.4821 20.6861 11.2589 20.6861 10.916V8.98478H18.9032C18.7525 8.98408 18.6082 8.92421 18.5016 8.8182C18.395 8.7122 18.3348 8.56862 18.3341 8.41871C18.3341 8.11246 18.5859 7.85219 18.9032 7.85219H20.6861V5.93076C20.6861 5.57808 20.9757 5.35487 21.3024 5.35487C21.6288 5.35487 21.9084 5.57808 21.9084 5.93076V7.85219H23.6918C24.0091 7.85219 24.2708 8.11201 24.2708 8.41871C24.2708 8.72496 24.0091 8.98478 23.6918 8.98478H21.9089V10.916C21.9089 11.2593 21.6283 11.4821 21.302 11.4821ZM9.23373 23.4392C9.43281 23.4408 9.63022 23.403 9.81445 23.328C9.99868 23.2529 10.166 23.1422 10.3068 23.0021C10.4476 22.8621 10.5589 22.6956 10.6343 22.5124C10.7097 22.3291 10.7476 22.1328 10.746 21.9348C10.7467 21.737 10.7081 21.5411 10.6324 21.3583C10.5566 21.1754 10.4452 21.0093 10.3046 20.8696C10.1639 20.7298 9.99688 20.6191 9.813 20.5438C9.62913 20.4686 9.4321 20.4303 9.23328 20.4312C9.03428 20.4297 8.83696 20.4675 8.65281 20.5426C8.46866 20.6176 8.30136 20.7283 8.16066 20.8683C8.01996 21.0083 7.90867 21.1747 7.83327 21.3579C7.75788 21.541 7.71988 21.7373 7.72149 21.9352C7.71908 22.1334 7.75655 22.3301 7.8317 22.5136C7.90684 22.6972 8.01814 22.8639 8.15905 23.0041C8.29995 23.1442 8.46762 23.2549 8.65218 23.3296C8.83674 23.4044 9.03447 23.4416 9.23373 23.4392ZM17.9705 23.4392C18.1695 23.4408 18.3669 23.4029 18.5511 23.3279C18.7353 23.2528 18.9026 23.142 19.0433 23.002C19.184 22.862 19.2953 22.6955 19.3706 22.5123C19.446 22.329 19.484 22.1327 19.4823 21.9348C19.4831 21.7371 19.4445 21.5412 19.3688 21.3585C19.2931 21.1757 19.1817 21.0097 19.0412 20.8699C18.9007 20.7301 18.7337 20.6194 18.5499 20.5441C18.3662 20.4688 18.1692 20.4304 17.9705 20.4312C17.1208 20.4312 16.4399 21.0995 16.4399 21.9352C16.4399 22.7799 17.1208 23.4392 17.9705 23.4392Z" fill="#5F66A8"/>
</g>
<defs>
<clipPath id="clip0_1628_331">
<rect width="25.1366" height="25" fill="white" transform="translate(0.907227 0.254883)"/>
</clipPath>
</defs>
</svg>
