<svg width="25" height="25" viewBox="0 0 25 25" fill="none" xmlns="http://www.w3.org/2000/svg">
<path d="M8.93199 17.7004H21.1427C21.5503 17.7004 21.9061 17.3656 21.9061 16.9156C21.9061 16.4656 21.5503 16.1308 21.1427 16.1308H9.10967C8.51324 16.1308 8.14717 15.712 8.05297 15.0741L7.88556 13.9754H21.1632C22.6909 13.9754 23.4757 13.0334 23.6954 11.5374L24.5324 6.00218C24.5547 5.87074 24.5687 5.73804 24.5744 5.60486C24.5744 5.10263 24.1976 4.75709 23.6222 4.75709H6.53601L6.3369 3.42852C6.23244 2.62272 5.93958 2.21423 4.87261 2.21423H1.1994C0.781097 2.21423 0.425293 2.5812 0.425293 2.99995C0.425293 3.42852 0.781097 3.79504 1.19985 3.79504H4.73601L6.41011 15.2834C6.6302 16.7691 7.41458 17.7004 8.93199 17.7004ZM22.7954 6.337L22.0534 11.3491C21.9695 11.9977 21.6244 12.3955 21.007 12.3955L7.6561 12.4058L6.76636 6.337H22.7954ZM9.75878 22.7857C9.98189 22.7875 10.2031 22.7449 10.4096 22.6604C10.6161 22.5759 10.8037 22.4511 10.9615 22.2933C11.1193 22.1355 11.2441 21.9479 11.3286 21.7414C11.4131 21.5349 11.4557 21.3137 11.4539 21.0906C11.4548 20.8677 11.4116 20.6469 11.3268 20.4408C11.2419 20.2347 11.1171 20.0474 10.9595 19.8899C10.8019 19.7323 10.6147 19.6074 10.4086 19.5226C10.2025 19.4377 9.98164 19.3945 9.75878 19.3955C8.80699 19.3955 8.05342 20.1491 8.05342 21.0906C8.05342 22.0428 8.80699 22.7857 9.75878 22.7857ZM19.5418 22.7857C20.494 22.7857 21.2472 22.0428 21.2472 21.0906C21.2472 20.1486 20.494 19.3955 19.5418 19.3955C18.6003 19.3955 17.8365 20.1491 17.8365 21.0906C17.8365 22.0428 18.6003 22.7857 19.5418 22.7857Z" fill="#5F66A8"/>
</svg>
