<svg width="45" height="35" viewBox="0 0 45 35" fill="none" xmlns="http://www.w3.org/2000/svg">
<path d="M43.9386 16.5781L39.2242 5.64062C39.1039 5.3582 38.9027 5.11723 38.6456 4.94775C38.3885 4.77826 38.0869 4.68775 37.7785 4.6875H33.0641V1.5625C33.0641 1.1481 32.8985 0.750672 32.6038 0.457646C32.3091 0.16462 31.9094 0 31.4926 0H1.63493C1.21816 0 0.818451 0.16462 0.523746 0.457646C0.22904 0.750672 0.0634766 1.1481 0.0634766 1.5625V28.125C0.0634766 28.5394 0.22904 28.9368 0.523746 29.2299C0.818451 29.5229 1.21816 29.6875 1.63493 29.6875H4.99785C5.35973 31.0115 6.14974 32.1803 7.24598 33.0136C8.34222 33.847 9.68378 34.2984 11.0637 34.2984C12.4436 34.2984 13.7851 33.847 14.8814 33.0136C15.9776 32.1803 16.7676 31.0115 17.1295 29.6875H26.9983C27.3601 31.0115 28.1501 32.1803 29.2464 33.0136C30.3426 33.847 31.6842 34.2984 33.0641 34.2984C34.444 34.2984 35.7856 33.847 36.8818 33.0136C37.978 32.1803 38.768 31.0115 39.1299 29.6875H42.4928C42.9096 29.6875 43.3093 29.5229 43.604 29.2299C43.8987 28.9368 44.0643 28.5394 44.0643 28.125V17.1875C44.0639 16.978 44.0211 16.7708 43.9386 16.5781ZM33.0641 7.8125H36.7413L40.1042 15.625H33.0641V7.8125ZM11.0637 31.25C10.4421 31.25 9.83442 31.0667 9.31757 30.7233C8.80072 30.38 8.39789 29.8919 8.16001 29.3209C7.92213 28.7499 7.85989 28.1215 7.98116 27.5153C8.10243 26.9092 8.40176 26.3523 8.8413 25.9153C9.28085 25.4783 9.84086 25.1806 10.4505 25.06C11.0602 24.9395 11.6921 25.0014 12.2664 25.2379C12.8407 25.4744 13.3316 25.8749 13.6769 26.3888C14.0223 26.9027 14.2066 27.5069 14.2066 28.125C14.2066 28.9538 13.8755 29.7487 13.2861 30.3347C12.6966 30.9208 11.8972 31.25 11.0637 31.25ZM26.9983 26.5625H17.1295C16.7676 25.2385 15.9776 24.0697 14.8814 23.2364C13.7851 22.403 12.4436 21.9516 11.0637 21.9516C9.68378 21.9516 8.34222 22.403 7.24598 23.2364C6.14974 24.0697 5.35973 25.2385 4.99785 26.5625H3.20639V3.125H29.9212V22.75C29.2056 23.1629 28.5791 23.7123 28.0775 24.3665C27.5759 25.0208 27.2091 25.767 26.9983 26.5625ZM33.0641 31.25C32.4425 31.25 31.8348 31.0667 31.318 30.7233C30.8011 30.38 30.3983 29.8919 30.1604 29.3209C29.9225 28.7499 29.8603 28.1215 29.9816 27.5153C30.1028 26.9092 30.4022 26.3523 30.8417 25.9153C31.2813 25.4783 31.8413 25.1806 32.4509 25.06C33.0606 24.9395 33.6925 25.0014 34.2668 25.2379C34.8411 25.4744 35.332 25.8749 35.6773 26.3888C36.0227 26.9027 36.207 27.5069 36.207 28.125C36.207 28.9538 35.8759 29.7487 35.2865 30.3347C34.6971 30.9208 33.8976 31.25 33.0641 31.25ZM40.9214 26.5625H39.1299C38.7824 25.2243 37.9986 24.0383 36.901 23.1901C35.8035 22.342 34.4541 21.8795 33.0641 21.875V18.75H40.9214V26.5625Z" fill="#5F66A8"/>
</svg>
