<svg width="19" height="15" viewBox="0 0 19 15" fill="none" xmlns="http://www.w3.org/2000/svg">
<path d="M2.10233 1.04011C1.96476 0.965921 1.81029 0.928703 1.65403 0.932098C1.49776 0.935492 1.34506 0.979382 1.21084 1.05948C1.07662 1.13957 0.965488 1.25313 0.888305 1.38904C0.811123 1.52495 0.770534 1.67857 0.770508 1.83487V13.2745C0.770508 13.5141 0.865659 13.7438 1.03503 13.9131C1.2044 14.0825 1.43411 14.1777 1.67364 14.1777C1.91316 14.1777 2.14288 14.0825 2.31225 13.9131C2.48162 13.7438 2.57677 13.5141 2.57677 13.2745V3.34731L9.07209 6.84423C9.33942 6.98873 9.66213 6.98873 9.92946 6.84423L16.4248 3.34731V13.2745C16.4248 13.5141 16.5199 13.7438 16.6893 13.9131C16.8587 14.0825 17.0884 14.1777 17.3279 14.1777C17.5674 14.1777 17.7972 14.0825 17.9665 13.9131C18.1359 13.7438 18.231 13.5141 18.231 13.2745V1.83487C18.231 1.67857 18.1904 1.52495 18.1132 1.38904C18.0361 1.25313 17.9249 1.13957 17.7907 1.05948C17.6565 0.979382 17.5038 0.935492 17.3475 0.932098C17.1913 0.928703 17.0368 0.965921 16.8992 1.04011L9.50077 5.02352L2.10233 1.04011Z" fill="black"/>
</svg>
