<svg width="25" height="21" viewBox="0 0 25 21" fill="none" xmlns="http://www.w3.org/2000/svg">
<path d="M5.10233 4.04011C4.96476 3.96592 4.81029 3.9287 4.65403 3.9321C4.49776 3.93549 4.34506 3.97938 4.21084 4.05948C4.07662 4.13957 3.96549 4.25313 3.88831 4.38904C3.81112 4.52495 3.77053 4.67857 3.77051 4.83487V16.2745C3.77051 16.5141 3.86566 16.7438 4.03503 16.9131C4.2044 17.0825 4.43411 17.1777 4.67364 17.1777C4.91316 17.1777 5.14288 17.0825 5.31225 16.9131C5.48162 16.7438 5.57677 16.5141 5.57677 16.2745V6.34731L12.0721 9.84423C12.3394 9.98873 12.6621 9.98873 12.9295 9.84423L19.4248 6.34731V16.2745C19.4248 16.5141 19.5199 16.7438 19.6893 16.9131C19.8587 17.0825 20.0884 17.1777 20.3279 17.1777C20.5674 17.1777 20.7972 17.0825 20.9665 16.9131C21.1359 16.7438 21.231 16.5141 21.231 16.2745V4.83487C21.231 4.67857 21.1904 4.52495 21.1132 4.38904C21.0361 4.25313 20.9249 4.13957 20.7907 4.05948C20.6565 3.97938 20.5038 3.93549 20.3475 3.9321C20.1913 3.9287 20.0368 3.96592 19.8992 4.04011L12.5008 8.02352L5.10233 4.04011Z" fill="black"/>
<path fill-rule="evenodd" clip-rule="evenodd" d="M18.8942 0.285255C14.6399 -0.0950849 10.3601 -0.0950849 6.10583 0.285255L4.2779 0.447818C3.32574 0.532841 2.43004 0.93633 1.73545 1.59312C1.04086 2.24991 0.587938 3.12165 0.449824 4.06757C-0.149941 8.16966 -0.149941 12.3372 0.449824 16.4393C0.588238 17.3851 1.04145 18.2568 1.73626 18.9133C2.43106 19.5699 3.32691 19.9731 4.2791 20.0578L6.10463 20.2216C10.3602 20.6021 14.6398 20.6021 18.8954 20.2216L20.7221 20.0578C21.6741 19.9728 22.5696 19.5695 23.2642 18.913C23.9588 18.2564 24.4118 17.385 24.5502 16.4393C25.1499 12.3372 25.1499 8.16966 24.5502 4.06757C24.412 3.12147 23.9589 2.24958 23.2641 1.59277C22.5692 0.935957 21.6733 0.532584 20.7209 0.447818L18.8942 0.285255ZM6.26719 2.08429C10.4149 1.71344 14.5875 1.71344 18.7352 2.08429L20.5619 2.24806C21.1096 2.2967 21.6248 2.52852 22.0244 2.90608C22.4241 3.28364 22.6848 3.78489 22.7644 4.32887C23.3389 8.25768 23.3389 12.2491 22.7644 16.178C22.6848 16.7219 22.4241 17.2232 22.0244 17.6007C21.6248 17.9783 21.1096 18.2101 20.5619 18.2588L18.7352 18.4225C14.588 18.7934 10.4144 18.7934 6.26719 18.4225L4.44046 18.2588C3.89284 18.2101 3.3776 17.9783 2.97797 17.6007C2.57834 17.2232 2.31766 16.7219 2.23802 16.178C1.66359 12.2491 1.66359 8.25768 2.23802 4.32887C2.31766 3.78489 2.57834 3.28364 2.97797 2.90608C3.3776 2.52852 3.89284 2.2967 4.44046 2.24806L6.26719 2.08429Z" fill="black"/>
</svg>
