<svg width="25" height="25" viewBox="0 0 25 25" fill="none" xmlns="http://www.w3.org/2000/svg">
<path d="M22.7043 21.0459L18.0666 16.4063C19.4571 14.5943 20.1063 12.3211 19.8825 10.048C19.6587 7.77494 18.5786 5.67209 16.8613 4.16605C15.1441 2.66002 12.9183 1.86358 10.6354 1.93829C8.35256 2.013 6.18359 2.95328 4.56849 4.56837C2.9534 6.18347 2.01313 8.35244 1.93841 10.6353C1.8637 12.9182 2.66014 15.144 4.16618 16.8612C5.67221 18.5785 7.77506 19.6586 10.0482 19.8824C12.3213 20.1062 14.5944 19.457 16.4064 18.0665L21.048 22.709C21.157 22.818 21.2864 22.9045 21.4289 22.9635C21.5713 23.0225 21.7239 23.0529 21.8781 23.0529C22.0323 23.0529 22.1849 23.0225 22.3273 22.9635C22.4698 22.9045 22.5992 22.818 22.7082 22.709C22.8172 22.6 22.9037 22.4706 22.9627 22.3282C23.0216 22.1858 23.052 22.0331 23.052 21.879C23.052 21.7248 23.0216 21.5721 22.9627 21.4297C22.9037 21.2873 22.8172 21.1579 22.7082 21.0489L22.7043 21.0459ZM4.29705 10.9375C4.29705 9.62416 4.68651 8.34026 5.41619 7.24822C6.14587 6.15617 7.183 5.30503 8.39641 4.80241C9.60983 4.2998 10.945 4.16829 12.2332 4.42452C13.5213 4.68075 14.7046 5.31321 15.6333 6.24192C16.562 7.17063 17.1945 8.35387 17.4507 9.64203C17.7069 10.9302 17.5754 12.2654 17.0728 13.4788C16.5702 14.6922 15.7191 15.7293 14.627 16.459C13.535 17.1887 12.2511 17.5782 10.9377 17.5782C9.17702 17.5764 7.48901 16.8761 6.24404 15.6312C4.99907 14.3862 4.29886 12.6982 4.29705 10.9375Z" fill="#5F66A8"/>
</svg>
