<svg width="22" height="17" viewBox="0 0 22 17" fill="none" xmlns="http://www.w3.org/2000/svg">
<path d="M8.19891 6.63162C8.19891 4.51349 9.19329 2.63382 10.7224 1.41885C9.55781 0.497765 8.11586 -0.00228461 6.63102 7.84723e-06C5.75997 -0.00069787 4.89734 0.170357 4.09247 0.503384C3.2876 0.836411 2.55629 1.32487 1.9404 1.94082C1.3245 2.55678 0.836105 3.28813 0.50315 4.09302C0.170195 4.89792 -0.00078134 5.76058 2.6842e-06 6.63162C-0.000781137 7.50273 0.170187 8.36544 0.503127 9.1704C0.836068 9.97537 1.32445 10.7068 1.94033 11.3228C2.55621 11.9389 3.2875 12.4275 4.09238 12.7606C4.89725 13.0938 5.75992 13.265 6.63102 13.2644C8.17983 13.2644 9.59987 12.7303 10.7224 11.8444C9.93413 11.2237 9.2973 10.4318 8.86011 9.52874C8.42292 8.62565 8.19682 7.63497 8.19891 6.63162Z" fill="#E31021"/>
<path d="M21.4613 6.63162C21.462 7.5028 21.2909 8.36557 20.9579 9.17058C20.6249 9.97559 20.1364 10.707 19.5204 11.3231C18.9044 11.9391 18.173 12.4277 17.368 12.7608C16.563 13.0939 15.7003 13.2651 14.8291 13.2644C13.2821 13.2644 11.8602 12.7303 10.7383 11.8444C11.5284 11.2252 12.1665 10.4337 12.6039 9.53028C13.0414 8.62685 13.2666 7.63539 13.2624 6.63162C13.2624 4.51349 12.2668 2.63381 10.7383 1.41885C11.9028 0.498057 13.3445 -0.00196458 14.8291 5.80113e-06C18.4954 5.80113e-06 21.4613 2.98495 21.4613 6.63162Z" fill="#F49D1E"/>
<path d="M10.7379 1.41846H10.7218C9.19204 2.63401 8.19826 4.51309 8.19826 6.63123C8.19617 7.63457 8.42227 8.62525 8.85946 9.52834C9.29665 10.4314 9.93348 11.2233 10.7218 11.844H10.7379C11.5279 11.2248 12.1661 10.4333 12.6035 9.52989C13.041 8.62645 13.2662 7.63499 13.262 6.63123C13.262 4.51309 12.2664 2.63342 10.7379 1.41846Z" fill="#EA611C"/>
<path fill-rule="evenodd" clip-rule="evenodd" d="M20.4299 15.7312V14.1484H20.0407V15.0707C19.9125 14.9038 19.7318 14.8126 19.4886 14.8126C18.992 14.8126 18.6063 15.2001 18.6063 15.7318C18.6063 16.2684 18.9914 16.6535 19.4886 16.6535C19.7479 16.6535 19.9316 16.5617 20.0407 16.3983V16.6177H20.4305L20.4299 15.7312ZM9.00763 14.8483H9.6324V15.2001H9.00823V15.9929C9.00823 16.1754 9.07976 16.2851 9.26517 16.2851C9.35638 16.2851 9.48575 16.2684 9.59961 16.195L9.70811 16.5259C9.56075 16.607 9.39579 16.6508 9.22761 16.6535C8.78646 16.6535 8.62311 16.415 8.62311 16.0096V15.2001H8.27078V14.8483H8.62311V14.3166H9.00823L9.00763 14.8483ZM3.90634 15.5124V16.6177H3.48307V15.6412C3.48307 15.3461 3.35311 15.1786 3.09378 15.1786C2.85353 15.1786 2.67051 15.3264 2.67051 15.6412V16.6171H2.28182V15.6412C2.28182 15.3461 2.15365 15.1786 1.89671 15.1786C1.63798 15.1786 1.47165 15.3264 1.47165 15.6412V16.6171H1.08594V14.8477H1.47225V15.0701C1.62128 14.8674 1.80609 14.812 1.98792 14.812C2.26453 14.812 2.44994 14.9222 2.57811 15.1249C2.74384 14.8859 2.98171 14.812 3.20646 14.812C3.64761 14.812 3.90634 15.0892 3.90634 15.5124ZM12.9142 14.8126C12.8211 14.8098 12.7289 14.8324 12.6476 14.8778C12.5662 14.9233 12.4987 14.9899 12.4522 15.0707V14.8483H12.0665V16.6177H12.4522V15.6233C12.4522 15.327 12.581 15.1625 12.8194 15.1625C12.8951 15.1625 12.9858 15.1786 13.0621 15.1989L13.1712 14.8281C13.0961 14.812 12.9864 14.8126 12.9142 14.8126ZM7.24063 14.8126C7.51725 14.8126 7.77419 14.8686 7.95661 14.9962L7.79505 15.3086C7.68178 15.2537 7.46121 15.1625 7.24182 15.1625C7.03734 15.1625 6.90798 15.2352 6.90798 15.3652C6.90798 15.4749 7.03734 15.5118 7.20248 15.5291L7.38788 15.5482C7.75511 15.6031 7.99357 15.77 7.99357 16.0818C7.99357 16.4138 7.69848 16.6541 7.184 16.6541C6.90678 16.6541 6.63136 16.5801 6.42926 16.4323L6.61407 16.1384C6.74165 16.2302 6.94613 16.3244 7.20248 16.3244C7.46061 16.3244 7.60786 16.2302 7.60786 16.1014C7.60786 16.0084 7.49876 15.9524 7.29428 15.9184L7.11127 15.8999C6.72198 15.8439 6.50319 15.677 6.50319 15.3813C6.50319 15.0319 6.79769 14.8126 7.24063 14.8126ZM18.2355 14.8126C18.1431 14.8102 18.0517 14.8329 17.9712 14.8784C17.8906 14.9238 17.824 14.9903 17.7782 15.0707V14.8483H17.3896V16.6177H17.7782V15.6233C17.7782 15.327 17.9064 15.1625 18.1449 15.1625C18.2188 15.1625 18.3118 15.1786 18.3821 15.1989L18.4954 14.8281C18.4221 14.812 18.3118 14.8126 18.2355 14.8126ZM14.2383 16.6535C13.6684 16.6535 13.2993 16.2684 13.2993 15.7318C13.2993 15.1995 13.6684 14.8126 14.2383 14.8114C14.497 14.8114 14.6818 14.868 14.8684 15.0152L14.6818 15.327C14.5508 15.2217 14.388 15.1637 14.2198 15.1625C13.9098 15.1774 13.6862 15.401 13.6862 15.7318C13.6862 16.0818 13.9092 16.3041 14.2198 16.3041C14.3879 16.3041 14.5352 16.2499 14.6818 16.1384L14.8684 16.4514C14.6818 16.5992 14.497 16.6535 14.2383 16.6535ZM16.8727 15.7318V14.8483H16.487V15.0707C16.3588 14.9038 16.1728 14.8126 15.9337 14.8126C15.4389 14.8126 15.0485 15.2001 15.0485 15.7318C15.0485 16.2684 15.4383 16.6535 15.9337 16.6535C16.1919 16.6535 16.3785 16.5617 16.487 16.3983V16.6177H16.8727V15.7318ZM15.9904 15.1631C15.6583 15.1631 15.4538 15.4212 15.4538 15.7318C15.4538 16.0478 15.6571 16.2845 15.9904 16.3041C16.301 16.3041 16.5251 16.0478 16.5251 15.7318C16.5251 15.401 16.301 15.1631 15.9904 15.1631ZM10.8325 14.8126C10.3156 14.8126 9.94717 15.1792 9.94717 15.7318C9.94717 16.2851 10.3156 16.6535 10.8515 16.6535C11.1079 16.6535 11.3654 16.5807 11.5669 16.415L11.3845 16.139C11.2365 16.2542 11.0557 16.3191 10.8682 16.3244C10.6268 16.3244 10.3889 16.2111 10.3329 15.8999H11.6414V15.7521C11.6617 15.1792 11.3291 14.8126 10.8325 14.8126ZM11.2748 15.5691C11.2372 15.2925 11.0703 15.1446 10.8325 15.1446C10.557 15.1446 10.3889 15.327 10.3526 15.5691H11.2748ZM19.5441 15.1631C19.212 15.1631 19.0117 15.4212 19.0117 15.7318C19.0117 16.0478 19.2114 16.2845 19.5441 16.3041C19.86 16.3041 20.0794 16.0478 20.0794 15.7318C20.0794 15.401 19.86 15.1631 19.5441 15.1631ZM6.07753 15.7318V14.8483H5.69361V15.0707C5.56484 14.9038 5.37884 14.8126 5.14038 14.8126C4.63961 14.8126 4.25509 15.2001 4.25509 15.7318C4.25509 16.2684 4.64021 16.6535 5.14038 16.6535C5.39673 16.6535 5.58273 16.5617 5.69361 16.3983V16.6177H6.07753V15.7318ZM5.17615 15.1631C4.84469 15.1631 4.63961 15.4212 4.63961 15.7318C4.63961 16.0478 4.84469 16.2845 5.17615 16.3041C5.48734 16.3041 5.71209 16.0478 5.71209 15.7318C5.71209 15.401 5.48794 15.1631 5.17555 15.1631H5.17615Z" fill="black"/>
</svg>
