<svg width="20" height="20" viewBox="0 0 20 20" fill="none" xmlns="http://www.w3.org/2000/svg">
<path fill-rule="evenodd" clip-rule="evenodd" d="M0.324514 0.324514C0.53257 0.116717 0.814599 0 1.10865 0C1.4027 0 1.68473 0.116717 1.89279 0.324514L19.6468 18.0786C19.7559 18.1801 19.8433 18.3026 19.9039 18.4388C19.9646 18.5749 19.9972 18.7218 19.9998 18.8708C20.0025 19.0198 19.9751 19.1678 19.9192 19.3059C19.8634 19.4441 19.7804 19.5696 19.675 19.675C19.5696 19.7804 19.4441 19.8634 19.3059 19.9192C19.1678 19.9751 19.0198 20.0025 18.8708 19.9998C18.7218 19.9972 18.5749 19.9646 18.4388 19.9039C18.3026 19.8433 18.1801 19.7559 18.0786 19.6468L0.324514 1.89279C0.116717 1.68473 0 1.4027 0 1.10865C0 0.814599 0.116717 0.53257 0.324514 0.324514Z" fill="#5F66A8"/>
<path fill-rule="evenodd" clip-rule="evenodd" d="M19.6465 0.324514C19.8543 0.53257 19.971 0.814599 19.971 1.10865C19.971 1.4027 19.8543 1.68473 19.6465 1.89279L1.89245 19.6468C1.6821 19.8428 1.40389 19.9495 1.11642 19.9445C0.828951 19.9394 0.554673 19.8229 0.35137 19.6196C0.148066 19.4163 0.0316121 19.1421 0.0265401 18.8546C0.021468 18.5671 0.128174 18.2889 0.324179 18.0786L18.0782 0.324514C18.2863 0.116717 18.5683 0 18.8624 0C19.1564 0 19.4384 0.116717 19.6465 0.324514Z" fill="#5F66A8"/>
</svg>
