<svg width="28" height="29" viewBox="0 0 28 29" fill="none" xmlns="http://www.w3.org/2000/svg">
<path d="M25.6308 24.2341C26.1377 24.2344 26.625 24.4526 26.9918 24.8435C27.3587 25.2345 27.5769 25.7681 27.6012 26.334C27.6256 26.8998 27.4542 27.4544 27.1227 27.8829C26.7911 28.3114 26.3248 28.5809 25.8203 28.6356L25.6308 28.6459H4.57818C4.07131 28.6456 3.58397 28.4274 3.21714 28.0364C2.85031 27.6455 2.63211 27.1118 2.60775 26.546C2.58339 25.9802 2.75474 25.4255 3.0863 24.997C3.41786 24.5686 3.8842 24.2991 4.3887 24.2444L4.57818 24.2341H25.6308ZM25.6308 13.94C26.1543 13.94 26.6563 14.1724 27.0264 14.5861C27.3965 14.9998 27.6045 15.5608 27.6045 16.1459C27.6045 16.7309 27.3965 17.292 27.0264 17.7057C26.6563 18.1194 26.1543 18.3518 25.6308 18.3518H4.57818C4.05472 18.3518 3.55271 18.1194 3.18257 17.7057C2.81243 17.292 2.60449 16.7309 2.60449 16.1459C2.60449 15.5608 2.81243 14.9998 3.18257 14.5861C3.55271 14.1724 4.05472 13.94 4.57818 13.94H25.6308ZM25.6308 3.64587C26.1543 3.64587 26.6563 3.87828 27.0264 4.29196C27.3965 4.70565 27.6045 5.26672 27.6045 5.85176C27.6045 6.43679 27.3965 6.99787 27.0264 7.41155C26.6563 7.82523 26.1543 8.05764 25.6308 8.05764H4.57818C4.05472 8.05764 3.55271 7.82523 3.18257 7.41155C2.81243 6.99787 2.60449 6.43679 2.60449 5.85176C2.60449 5.26672 2.81243 4.70565 3.18257 4.29196C3.55271 3.87828 4.05472 3.64587 4.57818 3.64587H25.6308Z" fill="#5F66A8"/>
</svg>
