<svg width="73" height="20" viewBox="0 0 73 20" fill="none" xmlns="http://www.w3.org/2000/svg">
<path d="M26.733 8.75673C26.733 3.92584 20.7502 0 13.3661 0C5.98363 0 0.0015878 3.92584 0.0015878 8.75673L0 9.26721C0 14.376 5.22943 18.5146 13.3661 18.5146C21.5497 18.5146 26.733 14.3768 26.733 9.26721V8.75673Z" fill="#2A3375"/>
<path d="M26.2168 8.75088C26.2168 13.2833 20.4705 16.9662 13.3683 16.9662C6.27 16.9662 0.516602 13.2833 0.516602 8.75088C0.516602 4.20421 6.26921 0.520508 13.3683 0.520508C20.4705 0.519714 26.2168 4.20421 26.2168 8.75088Z" fill="#1A97D5"/>
<path d="M9.1042 6.14678C9.09388 6.16425 8.96606 6.29445 9.04862 6.41353C9.25107 6.66202 9.88063 6.81525 10.515 6.66996C10.8849 6.58184 11.3732 6.20236 11.8463 5.83637C12.3544 5.41639 12.8514 5.02182 13.3595 4.85193C13.893 4.69871 14.236 4.77095 14.4646 4.83923C14.7131 4.91624 15.0076 5.06073 15.4737 5.41639C16.3517 6.07771 19.8893 9.16996 20.4991 9.69473C20.9921 9.47958 23.1824 8.54595 26.1469 7.88622C25.8984 6.29445 24.929 4.84637 23.4746 3.66028C21.4295 4.51611 18.9406 4.96863 16.5049 3.77778C16.4946 3.77778 15.1744 3.13552 13.8803 3.18156C11.9448 3.21411 11.104 4.0612 10.2244 4.94164L9.1042 6.14678Z" fill="white"/>
<path d="M20.356 10.0457C20.3139 9.99649 16.2015 6.40647 15.2718 5.70069C14.7272 5.28786 14.4279 5.20053 14.1119 5.14417C13.9276 5.13373 13.7427 5.15385 13.5649 5.20371C13.1315 5.32438 12.5686 5.70069 12.0605 6.10082C11.5341 6.51365 11.0435 6.91298 10.5878 7.0019C10.0035 7.12892 9.29294 6.98602 8.96665 6.77166C8.8563 6.69697 8.76561 6.59675 8.70228 6.47951C8.58002 6.20323 8.80231 5.97617 8.83565 5.92695L9.97331 4.70434C10.1003 4.56224 10.2409 4.43442 10.3758 4.31057C10.0067 4.34947 9.67163 4.4495 9.33978 4.54953C8.93092 4.65671 8.53397 4.77738 8.13305 4.77738C7.96236 4.77738 7.07478 4.6321 6.89298 4.57097C5.86884 4.28755 4.96935 4.02 3.61893 3.396C2.01207 4.59161 0.926015 6.09526 0.617188 7.75928C0.843449 7.81802 1.22373 7.91647 1.37298 7.96569C5.03048 8.76912 6.16973 9.61621 6.37694 9.77817C6.49376 9.65366 6.63462 9.55415 6.791 9.48565C6.94738 9.41715 7.11603 9.38108 7.28675 9.37963C7.6837 9.3828 8.04969 9.57969 8.27436 9.90678C8.48078 9.73133 8.76976 9.59081 9.14607 9.59081C9.31517 9.59081 9.4938 9.62494 9.66687 9.69163C10.0781 9.82977 10.2893 10.1021 10.4012 10.3387C10.537 10.2767 10.714 10.2418 10.9133 10.2434C11.1046 10.2434 11.3134 10.2767 11.5167 10.372C12.1931 10.6634 12.2986 11.3302 12.2383 11.8312C12.2828 11.8248 12.3312 11.8217 12.3844 11.8217C12.6343 11.8224 12.8797 11.8878 13.0968 12.0115C13.3139 12.1353 13.4953 12.3131 13.6232 12.5277C13.7512 12.7424 13.8214 12.9865 13.8271 13.2363C13.8327 13.4861 13.7736 13.7331 13.6554 13.9533C13.8753 14.0652 14.4287 14.3391 14.9193 14.2804C15.3067 14.2399 15.4488 14.1097 15.5036 14.0351C15.5401 13.9716 15.579 13.9096 15.5449 13.8755L14.5089 12.7283C14.5089 12.7283 14.3461 12.5616 14.3945 12.5036C14.4501 12.4417 14.5629 12.5417 14.6367 12.5989C15.1599 13.0419 15.8021 13.6865 15.8021 13.6865C15.8109 13.6929 15.8545 13.7818 16.0887 13.8302C16.2928 13.8652 16.6588 13.8358 16.9088 13.6341C16.9676 13.5873 17.0279 13.527 17.0875 13.4603C17.0811 13.465 17.0756 13.4714 17.074 13.473C17.3407 13.1181 17.0454 12.7799 17.0454 12.7799L15.8426 11.4303C15.8426 11.4303 15.6608 11.2636 15.7267 11.204C15.7751 11.1556 15.8863 11.2421 15.9617 11.304C16.3468 11.6216 16.8779 12.163 17.4042 12.6719C17.5003 12.7474 17.9504 13.0252 18.557 12.6195C18.9182 12.3965 18.9912 12.0979 18.9833 11.8709C18.9547 11.5764 18.7269 11.3684 18.7269 11.3684L17.0875 9.71068C17.0875 9.71068 16.9168 9.56064 16.9747 9.48204C17.0168 9.4225 17.1335 9.52332 17.2089 9.58049C17.7297 10.0259 19.1524 11.3295 19.1524 11.3295C19.1691 11.3366 19.6589 11.6907 20.2662 11.2985C20.4798 11.1619 20.6227 10.9555 20.6322 10.7031C20.6377 10.5799 20.6157 10.457 20.5679 10.3434C20.5201 10.2297 20.4478 10.128 20.356 10.0457Z" fill="white"/>
<path d="M12.383 12.1278C12.1274 12.1167 11.8551 12.2771 11.8114 12.2612C11.7892 12.2541 11.8249 12.1389 11.855 12.0873C11.8741 12.031 12.2099 11.0156 11.389 10.6678C10.7666 10.4051 10.3847 10.6925 10.2474 10.8346C10.2149 10.8703 10.2021 10.8687 10.1974 10.8314C10.1815 10.6361 10.1005 10.1455 9.56544 9.97953C8.78821 9.75327 8.29043 10.2828 8.16659 10.4789C8.10387 10.0494 7.73788 9.69531 7.28694 9.69531C6.79314 9.69531 6.38428 10.105 6.38428 10.5996C6.38428 11.091 6.79314 11.4848 7.28536 11.4848C7.52114 11.4848 7.74026 11.4054 7.89825 11.2474C7.9046 11.2537 7.90619 11.2633 7.90301 11.2633C7.86649 11.4879 7.7998 12.3025 8.6469 12.6185C8.98033 12.7598 9.27011 12.6653 9.5059 12.489C9.57655 12.4462 9.58926 12.4732 9.57973 12.5407C9.55115 12.7463 9.59005 13.1877 10.2156 13.4338C10.6801 13.6196 10.9619 13.4282 11.1485 13.2599C11.2295 13.1877 11.2493 13.1932 11.2517 13.3187C11.285 13.8982 11.7788 14.396 12.3814 14.396C13.0022 14.396 13.5111 13.8935 13.5111 13.2591C13.5099 12.96 13.3907 12.6735 13.1795 12.4617C12.9683 12.2499 12.6821 12.1299 12.383 12.1278Z" fill="white"/>
<path d="M20.5161 9.61483C19.2482 8.49066 16.3147 5.95256 15.5185 5.34761C15.0715 5.01259 14.7627 4.84507 14.4911 4.76171C14.3292 4.70178 14.1572 4.67348 13.9846 4.67835C13.7798 4.67835 13.5647 4.70455 13.3368 4.77759C12.8208 4.94431 12.3103 5.34841 11.8117 5.74853L11.7919 5.77473C11.3338 6.1296 10.8567 6.50829 10.501 6.59007C10.3423 6.62514 10.18 6.64139 10.0175 6.63849C9.61024 6.63849 9.24504 6.52973 9.11246 6.34396C9.0942 6.33284 9.10452 6.27409 9.16089 6.20423H9.16724L10.2866 4.99194C11.1576 4.13453 11.9848 3.29855 13.8806 3.2668L13.9759 3.26521C15.1572 3.2668 16.3465 3.77886 16.4735 3.84952C17.5818 4.39493 18.7274 4.66247 19.8738 4.66406C21.0758 4.66406 22.3119 4.36476 23.617 3.77886C23.4738 3.64691 23.3198 3.52715 23.1566 3.42081C22.0149 3.9178 20.9297 4.15358 19.8754 4.15358C18.7728 4.14963 17.6862 3.89039 16.7006 3.3962C16.641 3.3581 15.3343 2.75235 13.9759 2.75235C13.9386 2.75235 13.9052 2.75235 13.8679 2.75394C12.2762 2.78014 11.3735 3.35016 10.7709 3.84952C10.1803 3.85984 9.67296 4.00195 9.2252 4.13374C8.81793 4.24726 8.4702 4.34888 8.13755 4.34888C7.99783 4.34888 7.74457 4.33459 7.72076 4.33459C7.32619 4.31951 5.36843 3.84317 3.80127 3.24139C3.64725 3.34936 3.48926 3.47718 3.33683 3.58912C4.97068 4.27029 6.9602 4.7768 7.58659 4.82284C7.76045 4.83793 7.94861 4.84666 8.13597 4.84666C8.54641 4.84666 8.96162 4.73313 9.36096 4.63151C9.60389 4.56165 9.85952 4.4902 10.1445 4.41875C10.0659 4.4902 9.99369 4.56165 9.91827 4.64104L8.78855 5.87238C8.6909 5.96844 8.50434 6.20264 8.62818 6.4948C8.67582 6.62738 8.78538 6.73614 8.93145 6.84173C9.19424 7.01004 9.67375 7.12833 10.131 7.12833C10.3001 7.12833 10.4581 7.12833 10.6058 7.08387C11.0861 6.98543 11.5839 6.57975 12.1071 6.16295C12.5262 5.83665 13.132 5.41271 13.5853 5.27298C13.7123 5.25076 13.8727 5.21979 13.9942 5.21979C14.0315 5.21979 14.0688 5.21979 14.0998 5.22773C14.4078 5.27378 14.7023 5.36746 15.2215 5.77235C16.1488 6.46622 20.2676 10.0554 20.3025 10.1047C20.3081 10.1078 20.5716 10.3381 20.5526 10.6929C20.548 10.8026 20.5155 10.9092 20.4582 11.0028C20.4008 11.0963 20.3204 11.1736 20.2247 11.2272C20.0532 11.3352 19.8682 11.4059 19.6872 11.4059C19.4125 11.4059 19.2204 11.263 19.2077 11.263C19.1982 11.255 17.7819 9.95859 17.269 9.52194C17.1809 9.45526 17.0975 9.39571 17.0181 9.39571C16.9792 9.39571 16.9379 9.41 16.9181 9.43858C16.8324 9.55132 16.9181 9.68946 17.0237 9.76726L18.6774 11.4265C18.679 11.4273 18.8782 11.6218 18.9116 11.8759C18.9148 12.1458 18.7861 12.3848 18.5146 12.5475C18.3185 12.6896 18.1304 12.7603 17.9319 12.7603C17.6747 12.7603 17.5 12.6301 17.4572 12.6174L17.223 12.38C16.7919 11.9553 16.3481 11.5099 16.0194 11.2415C15.94 11.178 15.8535 11.1224 15.7757 11.1224C15.7336 11.1224 15.701 11.1224 15.6621 11.1558C15.6336 11.1939 15.6034 11.2638 15.7042 11.4027C15.7336 11.4472 15.782 11.4781 15.782 11.4781L16.988 12.8333C16.9911 12.8444 17.2325 13.1263 17.011 13.4033L16.9689 13.474C16.9308 13.5065 16.8935 13.547 16.8562 13.5764C16.6513 13.7534 16.3767 13.7598 16.275 13.7598L16.1044 13.759C16.0187 13.7406 15.9386 13.7025 15.8701 13.6478L15.8551 13.6256C15.4789 13.2451 15.0866 12.8809 14.6793 12.534C14.6158 12.4768 14.5293 12.407 14.4514 12.407C14.4086 12.407 14.3681 12.4125 14.3435 12.4538C14.2363 12.5531 14.3832 12.7237 14.4514 12.7793L15.4811 13.9003C15.4734 13.9281 15.4583 13.9533 15.4375 13.9733C15.4017 14.0424 15.2779 14.1615 14.9095 14.1964C14.8652 14.204 14.8203 14.2077 14.7754 14.2075C14.3832 14.2075 13.9799 14.0321 13.7687 13.9067C13.8632 13.7074 13.9164 13.4819 13.9164 13.262C13.9164 12.4141 13.2257 11.7377 12.3841 11.7353C12.3635 11.7353 12.35 11.7377 12.3254 11.7377C12.3548 11.3447 12.3008 10.6239 11.5537 10.2976C11.3537 10.2034 11.1349 10.1557 10.9138 10.1579C10.7431 10.1579 10.5915 10.1936 10.4446 10.2492C10.3695 10.0975 10.2638 9.96297 10.1343 9.85396C10.0048 9.74496 9.85427 9.66382 9.69201 9.61562C9.51708 9.54998 9.33256 9.51351 9.14581 9.50765C8.83142 9.50765 8.54244 9.60689 8.28998 9.77917C8.16817 9.63082 8.01535 9.51095 7.84226 9.42797C7.66918 9.34499 7.48002 9.30092 7.28808 9.29886C6.94194 9.29886 6.61247 9.43223 6.36795 9.6831C6.04721 9.42747 4.78888 8.62722 1.39733 7.8484C1.233 7.82538 0.858274 7.69994 0.620104 7.63722C0.588348 7.83808 0.551828 8.01194 0.535156 8.2001C0.535156 8.2001 1.16154 8.34141 1.28857 8.37873C4.74839 9.14166 5.89319 9.94986 6.08452 10.1023C6.01806 10.2602 5.98326 10.4296 5.98211 10.6009C5.98211 11.317 6.56881 11.9036 7.28649 11.9036C7.36271 11.9036 7.44051 11.8957 7.52069 11.8743C7.62866 12.4078 7.96687 12.7976 8.50354 13C8.65041 13.0572 8.80602 13.0977 8.96083 13.0977C9.06245 13.0977 9.1601 13.0818 9.25219 13.0485C9.35937 13.3057 9.57213 13.6193 10.0636 13.8146C10.2295 13.8828 10.401 13.9011 10.5717 13.9011C10.713 13.9011 10.8408 13.8995 10.9607 13.832C11.2052 14.4036 11.7562 14.7927 12.3825 14.7927C12.7922 14.7927 13.1876 14.6156 13.4765 14.3298C13.7242 14.4727 14.2411 14.7117 14.7769 14.7133C14.8444 14.7133 14.9032 14.7069 14.9683 14.6966C15.4899 14.6291 15.732 14.4314 15.8463 14.2663C15.8638 14.252 15.8805 14.2155 15.8987 14.1869C16.0162 14.2195 16.1591 14.2584 16.3108 14.2584C16.5966 14.2584 16.8721 14.1528 17.1523 13.9543C17.423 13.7598 17.6191 13.474 17.6445 13.2318L17.6461 13.2207C17.735 13.2438 17.8366 13.2588 17.9271 13.2588C18.2209 13.2588 18.5115 13.1588 18.7846 12.9762C19.3196 12.6197 19.4109 12.1775 19.4109 11.8703C19.4951 11.8997 19.5872 11.9052 19.6904 11.9052C19.9635 11.9052 20.2295 11.8266 20.4922 11.6528C20.8257 11.4408 21.0178 11.1232 21.0504 10.7485C21.072 10.4869 21.0082 10.2253 20.8686 10.003C21.7657 9.62515 23.8084 8.87809 26.2115 8.34141C26.1998 8.14945 26.177 7.95833 26.1432 7.76901C23.228 8.41604 21.0575 9.36157 20.5161 9.61483ZM12.3833 14.3155C12.1132 14.3172 11.853 14.2136 11.6578 14.0267C11.4626 13.8399 11.3479 13.5844 11.3378 13.3144C11.3338 13.2596 11.3259 13.1278 11.2211 13.1278C11.1718 13.1278 11.1417 13.162 11.0972 13.1929C10.9702 13.3255 10.8154 13.4303 10.5828 13.4303C10.4748 13.4303 10.3613 13.4017 10.2446 13.3581C9.64438 13.1167 9.64438 12.7023 9.66105 12.5467C9.67058 12.4975 9.67296 12.4578 9.64438 12.4109L9.60389 12.3935H9.57372C9.53405 12.3953 9.49528 12.4059 9.46019 12.4244C9.28792 12.5467 9.12437 12.6166 8.95765 12.6166C8.85962 12.615 8.76324 12.5911 8.67582 12.5467C7.89065 12.2546 7.95019 11.5035 7.99148 11.2765C7.99862 11.2407 7.98195 11.1931 7.95575 11.1852L7.8978 11.1256L7.84778 11.1931C7.69508 11.3327 7.49492 11.4087 7.28808 11.4059C7.18105 11.4076 7.07476 11.3879 6.97538 11.3482C6.87601 11.3084 6.78553 11.2493 6.70922 11.1742C6.6329 11.0991 6.57228 11.0097 6.53086 10.911C6.48945 10.8123 6.46807 10.7063 6.46798 10.5993C6.46798 10.142 6.83238 9.77282 7.28967 9.77282C7.68979 9.77282 8.03514 10.0872 8.09151 10.4834L8.11294 10.7049L8.2352 10.5278C8.24949 10.5 8.58055 10.003 9.18233 10.003C9.303 10.003 9.42605 10.03 9.5372 10.0523C10.0231 10.2023 10.1009 10.6429 10.116 10.8351C10.1287 10.9327 10.2049 10.9422 10.2152 10.9422C10.2565 10.9422 10.2866 10.9065 10.312 10.8994C10.3873 10.8144 10.4799 10.7466 10.5835 10.7004C10.6872 10.6543 10.7996 10.6309 10.913 10.6318C11.0559 10.6318 11.21 10.6787 11.36 10.7461C12.1325 11.0645 11.7831 12.0481 11.7831 12.0481C11.7117 12.2125 11.7117 12.2823 11.772 12.3316H11.8181C11.8546 12.3316 11.8975 12.3316 11.9697 12.3085C12.0729 12.2617 12.2333 12.2101 12.3825 12.2109C12.6592 12.2148 12.9234 12.3268 13.1186 12.5229C13.3139 12.719 13.4246 12.9837 13.4273 13.2604C13.4265 13.8296 12.9518 14.3155 12.3833 14.3155ZM72.2713 3.18344C71.7965 2.56499 71.059 2.28157 70.0809 2.28157C69.0988 2.28157 68.3653 2.56419 67.8858 3.18344C67.4007 3.77807 67.1593 4.4902 67.1593 5.32776C67.1593 6.16057 67.4007 6.87825 67.8858 7.484C68.3653 8.06116 69.098 8.36444 70.0809 8.36444C71.0582 8.36444 71.7965 8.06037 72.2713 7.484C72.7611 6.87825 73.0001 6.16057 73.0001 5.32776C73.0001 4.4902 72.7611 3.77807 72.2713 3.18344ZM71.0844 6.63929C70.8446 6.96002 70.5159 7.12198 70.0753 7.12198C69.6355 7.12198 69.3037 6.96002 69.0639 6.63929C68.8313 6.34237 68.7082 5.90175 68.7082 5.32776C68.7082 4.75377 68.8313 4.30681 69.0639 3.99163C69.3045 3.70027 69.6363 3.5399 70.0753 3.5399C70.5167 3.5399 70.8454 3.70027 71.0844 3.99163C71.313 4.30601 71.4337 4.75298 71.4337 5.32776C71.4337 5.90255 71.313 6.34237 71.0844 6.63929ZM59.9459 2.67613C59.4601 2.42288 58.9043 2.29586 58.2668 2.29586C57.3007 2.29586 56.6211 2.56261 56.2186 3.06435C55.9709 3.38032 55.8304 3.78839 55.797 4.28775H57.2395C57.2769 4.06149 57.3491 3.90351 57.4531 3.77728C57.6047 3.5915 57.8596 3.49623 58.2192 3.49623C58.5399 3.49623 58.7789 3.55657 58.9433 3.63358C59.1147 3.72408 59.1894 3.89477 59.1894 4.13215C59.1894 4.3211 59.083 4.46241 58.8694 4.56086C58.7543 4.60849 58.5487 4.64104 58.2724 4.69026L57.7635 4.74901C57.1768 4.82364 56.7299 4.94193 56.4345 5.12294C55.8843 5.42383 55.6136 5.93748 55.6136 6.63849C55.6136 7.19899 55.7843 7.61579 56.1249 7.91191C56.4639 8.19772 56.8974 8.33347 57.4182 8.33903C60.6875 8.48828 60.6517 6.62738 60.6875 6.23757V4.07975C60.6859 3.39779 60.4358 2.92304 59.9459 2.67613ZM59.1886 5.93907C59.1806 6.4424 59.0361 6.78298 58.7614 6.98622C58.4796 7.16882 58.1827 7.27044 57.8516 7.27044C57.646 7.27044 57.4753 7.19978 57.33 7.09102C57.184 6.98543 57.1141 6.78854 57.1141 6.54164C57.1141 6.25583 57.23 6.03989 57.4642 5.90811C57.6047 5.82236 57.8334 5.75488 58.1565 5.7001L58.4947 5.63183C58.6638 5.60166 58.7972 5.56038 58.9028 5.531C58.9999 5.48552 59.0953 5.43626 59.1886 5.38334V5.93907ZM52.4865 3.58039C52.8596 3.58039 53.1295 3.70662 53.3065 3.92097C53.4312 4.10516 53.509 4.28696 53.5376 4.50052H55.1548C55.0635 3.70185 54.7784 3.13422 54.3013 2.7976C53.8147 2.49195 53.2002 2.31967 52.4412 2.31967C51.5544 2.31967 50.8486 2.58881 50.3493 3.13501C49.8467 3.68995 49.5935 4.44177 49.5935 5.41589C49.5935 6.28918 49.8166 6.99416 50.2778 7.55624C50.7351 8.0953 51.4512 8.36364 52.415 8.36364C53.3867 8.36364 54.1251 8.04767 54.6181 7.39111C54.9261 6.98464 55.096 6.55672 55.1333 6.09308H53.5217C53.4907 6.40191 53.4026 6.63294 53.2407 6.83856C53.0914 7.01718 52.8262 7.12039 52.4523 7.12039C51.9347 7.12039 51.5806 6.87428 51.3901 6.40588C51.29 6.13595 51.24 5.80728 51.24 5.39207C51.24 4.94987 51.29 4.60055 51.3901 4.33936C51.5917 3.84317 51.9522 3.58039 52.4865 3.58039ZM49.1568 2.32047C45.8431 2.32047 46.0305 5.26187 46.0305 5.26187V8.24059H47.5412V5.43653C47.5412 4.99036 47.604 4.63231 47.7135 4.41954C47.9263 4.03291 48.3256 3.84317 48.925 3.84317C48.9734 3.84317 49.0298 3.84714 49.1036 3.84873C49.1751 3.84873 49.2656 3.84873 49.3585 3.85587V2.33793C49.2942 2.32999 49.245 2.32841 49.2283 2.32523C49.2046 2.32167 49.1807 2.32008 49.1568 2.32047ZM43.6305 6.68692C43.5719 6.76965 43.5043 6.84554 43.4288 6.91318C43.2161 7.07752 42.9255 7.12833 42.581 7.12833C42.257 7.12833 42.0085 7.08387 41.7855 6.93938C41.4036 6.69883 41.1916 6.32649 41.1734 5.75329H45.3374C45.3474 5.37524 45.3309 4.99695 45.2882 4.62119C45.2285 4.19087 45.0716 3.7798 44.8293 3.41923C44.5791 3.05914 44.2403 2.76959 43.8456 2.57848C43.4204 2.40563 42.9654 2.31771 42.5063 2.31967C41.6624 2.31967 40.9781 2.57769 40.4565 3.11516C39.9365 3.63358 39.6665 4.40763 39.6665 5.39128C39.6665 6.44558 39.9579 7.19899 40.5422 7.68168C41.1107 8.14217 41.8216 8.39056 42.5532 8.38428C43.4717 8.38428 44.1902 8.1088 44.7094 7.55704C44.9817 7.26171 45.1548 6.97193 45.2262 6.68613L43.6305 6.68692ZM41.6092 3.87572C41.8228 3.6574 42.1102 3.56213 42.5063 3.56213C42.8572 3.56213 43.1494 3.64787 43.3884 3.84793C43.6249 4.06149 43.7559 4.36079 43.7924 4.77124H41.2115C41.2599 4.39334 41.3972 4.09642 41.6092 3.87572ZM39.064 8.24059H37.6905V4.7768C37.6905 4.46321 37.5905 3.70662 36.6799 3.70662C36.0741 3.70662 35.6343 4.13294 35.6343 4.7768V8.24059H34.2617V4.7768C34.2617 4.46321 34.1696 3.70662 33.2613 3.70662C32.6461 3.70662 32.2174 4.13294 32.2174 4.7768V8.24059H30.8439V4.80935C30.8439 3.38112 31.7918 2.29665 33.2621 2.29665C33.9854 2.29665 34.5864 2.60945 34.9698 3.0977C35.178 2.84619 35.4394 2.64393 35.735 2.50542C36.0307 2.36692 36.3534 2.29562 36.6799 2.29665C38.1796 2.29665 39.0648 3.3446 39.0648 4.80935L39.064 8.24059ZM66.7116 0.506402C66.7116 0.506402 65.1944 0.356356 65.1944 1.56785V3.18344C65.028 2.91508 64.7948 2.69449 64.5176 2.54323C64.2404 2.39197 63.9287 2.31522 63.613 2.32047C62.8619 2.32047 62.2649 2.59992 61.8148 3.15406C61.3631 3.70662 61.1471 4.52592 61.1471 5.4929C61.1471 6.34237 61.3646 7.04815 61.8259 7.57689C62.2856 8.12706 63.1811 8.35094 63.9671 8.35094C66.7441 8.35094 66.7108 5.9875 66.7108 5.9875L66.7116 0.506402ZM64.9086 6.65755C64.6863 6.98225 64.36 7.12913 63.9393 7.12913C63.5185 7.12913 63.2017 6.98225 63.0001 6.65437C62.7905 6.34237 62.6825 5.87794 62.6825 5.34761C62.6825 4.85619 62.7913 4.4513 62.9914 4.13135C63.1946 3.7876 63.5129 3.63517 63.9536 3.63517C64.2417 3.63517 64.4918 3.70741 64.7109 3.90589C65.0626 4.20519 65.2397 4.74028 65.2397 5.43177C65.2397 5.9351 65.1262 6.34237 64.9086 6.65755Z" fill="#2A3375"/>
<path d="M32.294 17.7897C32.2952 17.8878 32.2767 17.9852 32.2398 18.0761C32.2028 18.167 32.1481 18.2497 32.0789 18.3192C32.0096 18.3887 31.9271 18.4436 31.8363 18.4809C31.7455 18.5181 31.6482 18.5368 31.5501 18.536H30.7959V13.3042C30.7959 12.2792 31.1381 11.6457 31.6994 11.2138C32.0749 10.932 32.6274 10.6637 33.6706 10.6637C34.3685 10.6637 35.1941 10.932 35.6387 11.4758C36.1381 12.0871 36.3445 12.758 36.3445 13.6495C36.3445 14.5673 36.1254 15.3167 35.6863 15.8851C35.2402 16.4321 34.6741 16.7021 33.9779 16.7021C33.6166 16.7021 33.2887 16.6386 33.0053 16.5131C32.71 16.3678 32.4758 16.136 32.294 15.8248V17.7897ZM34.8226 13.7162C34.8226 13.1502 34.7098 12.7127 34.4875 12.4063C34.2668 12.1101 33.9485 11.9553 33.5388 11.9553C33.1387 11.9553 32.8338 12.1101 32.6092 12.4063C32.4059 12.6889 32.294 13.1176 32.294 13.7162C32.294 14.2648 32.4067 14.6856 32.6322 14.9698C32.8497 15.2556 33.1681 15.416 33.5761 15.416C33.9675 15.416 34.2668 15.2564 34.4875 14.9698C34.7106 14.657 34.8226 14.2505 34.8226 13.7162ZM46.3175 16.2273V15.8542C46.0547 16.2527 45.6998 16.5211 45.2647 16.6108C44.828 16.7198 44.3676 16.6847 43.9524 16.5107C43.5174 16.3242 43.1387 16.0153 42.8283 15.5398C42.5202 15.0611 42.3615 14.4474 42.3615 13.6805C42.3615 12.7643 42.5647 12.0466 42.9815 11.4766C43.3951 10.9161 44.0588 10.6732 44.9686 10.6375C45.8737 10.6208 46.3921 10.8296 46.9049 11.2027C47.4623 11.6259 47.7973 12.2808 47.7973 13.3073V16.3869C47.8005 17.3602 47.1145 19.1767 44.9686 19.0242C43.6404 18.9171 42.9045 18.3851 42.4909 17.1435H44.0802C44.1954 17.3435 44.3764 17.5023 44.6114 17.6055C44.8448 17.7214 45.0933 17.7492 45.3275 17.6905C45.5625 17.65 45.7816 17.5047 45.9848 17.2689C46.1754 17.0371 46.2873 16.6822 46.3175 16.2273ZM43.8437 13.7178C43.8437 14.7213 44.1295 15.273 44.7066 15.3969C45.287 15.4914 45.7157 15.3596 45.9864 14.9698C46.1245 14.8269 46.2135 14.5704 46.2682 14.2354C46.3302 13.8972 46.3397 13.5455 46.2825 13.2145C46.2378 12.8952 46.1148 12.5919 45.9245 12.3316C45.7347 12.0554 45.46 11.9268 45.0933 11.9268C44.6098 11.9268 44.2724 12.1173 44.0953 12.4753C43.9215 12.8318 43.8437 13.2597 43.8437 13.7178ZM41.0722 11.0487C40.5839 10.8145 40.0306 10.693 39.3923 10.693C38.4301 10.693 37.7489 10.936 37.3456 11.4441C37.0971 11.7608 36.9574 12.1848 36.9232 12.6865H38.3705C38.4078 12.4634 38.4769 12.2745 38.5793 12.1514C38.7325 11.976 38.9874 11.8966 39.3454 11.8966C39.6685 11.8966 39.9059 11.9299 40.0695 12.03C40.2409 12.1165 40.3179 12.2665 40.3179 12.5095C40.3179 12.6953 40.2108 12.8374 39.9956 12.935C39.8038 13.0068 39.6023 13.0496 39.3978 13.062L38.8937 13.1168C38.3038 13.1994 37.8576 13.3312 37.5599 13.4971C37.0121 13.8234 36.7398 14.3275 36.7398 15.0381C36.7398 15.5716 36.9066 15.9891 37.2535 16.2877C37.5901 16.5909 38.0204 16.706 38.5428 16.7402C41.8145 16.8878 41.7787 15.0095 41.8129 14.6125V12.4745C41.8137 11.7696 41.566 11.3123 41.0722 11.0487ZM40.3179 14.3275C40.3068 14.8269 40.1647 15.181 39.8908 15.3612C39.6212 15.5418 39.3047 15.6398 38.9802 15.643C38.7746 15.643 38.6031 15.5938 38.4586 15.4691C38.3141 15.3588 38.2435 15.1841 38.2435 14.9126C38.2435 14.6236 38.357 14.4133 38.5952 14.2783C38.7333 14.1949 38.9651 14.1267 39.2851 14.0798L39.6217 14.0147C39.7916 13.9711 39.9258 13.9528 40.0298 13.8988C40.1347 13.8724 40.2331 13.8245 40.3187 13.7583L40.3179 14.3275ZM53.4848 11.5393C53.0061 10.9201 52.2669 10.6216 51.2897 10.6216C50.3028 10.6216 49.5772 10.9201 49.085 11.5393C48.6094 12.1292 48.3713 12.8429 48.3713 13.6805C48.3713 14.5157 48.6102 15.2334 49.085 15.8256C49.5772 16.4155 50.3028 16.7179 51.2897 16.7179C52.2662 16.7179 53.0061 16.4155 53.4848 15.8256C53.9691 15.2334 54.2104 14.5157 54.2104 13.6805C54.2104 12.8429 53.9691 12.13 53.4848 11.5393ZM52.2939 14.9952C52.0534 15.3175 51.7231 15.4699 51.2857 15.4699C50.8427 15.4699 50.51 15.3183 50.2711 14.9952C50.0409 14.6848 49.9194 14.2553 49.9194 13.6813C49.9194 13.1089 50.0409 12.6651 50.2711 12.3467C50.5108 12.0474 50.8435 11.8974 51.2857 11.8974C51.7231 11.8974 52.0534 12.0474 52.2939 12.3467C52.525 12.6643 52.6456 13.1089 52.6456 13.6813C52.6456 14.2553 52.525 14.6848 52.2939 14.9952Z" fill="#1A97D5"/>
</svg>
