<svg width="26" height="25" viewBox="0 0 26 25" fill="none" xmlns="http://www.w3.org/2000/svg">
<path d="M24.6136 12.3418C24.5802 12.2676 23.777 10.4971 21.9792 8.70898C20.3139 7.05273 17.4497 5.07812 13.257 5.07812C9.06427 5.07812 6.20007 7.05273 4.53477 8.70898C2.73691 10.4971 1.93372 12.2676 1.90033 12.3418C1.87847 12.3919 1.86719 12.4459 1.86719 12.5005C1.86719 12.5551 1.87847 12.6091 1.90033 12.6592C1.93372 12.7344 2.73691 14.5039 4.53477 16.292C6.204 17.9521 9.06525 19.9219 13.257 19.9219C17.4487 19.9219 20.3139 17.9482 21.9792 16.292C23.777 14.5039 24.5802 12.7344 24.6136 12.6592C24.6355 12.6091 24.6468 12.5551 24.6468 12.5005C24.6468 12.4459 24.6355 12.3919 24.6136 12.3418ZM21.4028 15.7598C19.1376 18.0059 16.3951 19.1406 13.253 19.1406C10.111 19.1406 7.37246 18.0029 5.10329 15.7598C4.13778 14.8021 3.32578 13.7027 2.69567 12.5C3.32696 11.297 4.14029 10.1976 5.10722 9.24023C7.37638 6.99707 10.1149 5.85938 13.257 5.85938C16.3991 5.85938 19.1376 6.99707 21.4067 9.24023C22.3735 10.1977 23.1869 11.2971 23.8183 12.5C23.187 13.703 22.3736 14.8024 21.4067 15.7598H21.4028ZM13.257 8.20312C12.4025 8.20312 11.5672 8.45513 10.8567 8.92728C10.1462 9.39943 9.59249 10.0705 9.26549 10.8557C8.93849 11.6408 8.85293 12.5048 9.01964 13.3383C9.18634 14.1718 9.59781 14.9374 10.202 15.5384C10.8062 16.1393 11.5761 16.5485 12.4141 16.7143C13.2522 16.8801 14.1209 16.795 14.9103 16.4698C15.6997 16.1446 16.3745 15.5938 16.8492 14.8872C17.3239 14.1806 17.5773 13.3498 17.5773 12.5C17.576 11.3608 17.1204 10.2686 16.3105 9.46308C15.5006 8.65754 14.4024 8.20442 13.257 8.20312ZM13.257 16.0156C12.5579 16.0156 11.8744 15.8094 11.2931 15.4231C10.7118 15.0368 10.2588 14.4878 9.99121 13.8454C9.72367 13.203 9.65367 12.4961 9.79006 11.8141C9.92645 11.1322 10.2631 10.5057 10.7575 10.0141C11.2518 9.52241 11.8817 9.18758 12.5674 9.05193C13.2531 8.91628 13.9638 8.9859 14.6097 9.25199C15.2556 9.51807 15.8077 9.96868 16.1961 10.5468C16.5845 11.125 16.7918 11.8047 16.7918 12.5C16.7918 13.4324 16.4194 14.3266 15.7565 14.9859C15.0936 15.6452 14.1945 16.0156 13.257 16.0156Z" fill="#5F66A8"/>
</svg>
