<svg width="70" height="40" viewBox="0 0 70 40" fill="none" xmlns="http://www.w3.org/2000/svg">
<path d="M50.6868 29.0496L55.7948 7.83203H44.8296L40.1568 26.8618C39.4785 30.5705 35.4921 32.3067 32.6621 32.351H24.8915L22.2554 40.0001H38.5833C42.6106 40.0001 48.5597 37.9387 50.6868 29.0496Z" fill="#2E2A2B"/>
<path d="M27.6707 21.5675L32.8249 0H44.1088L38.2434 24.5321C37.115 29.2691 33.5935 30.4073 30.3414 30.4073H4.32938C1.46324 30.4073 -0.938073 29.1886 0.362772 23.7191L2.70496 13.9332C3.89245 8.97125 7.58313 7.83628 10.2521 7.83628H28.4065L26.9447 13.9513H17.6762C16.3129 13.9513 15.5656 14.2469 15.1845 15.8385L13.6899 22.0849C13.1545 24.3269 13.9379 24.4829 15.582 24.4829H24.0736C25.6291 24.4829 26.9956 24.3843 27.6707 21.5675ZM58.273 7.83334L52.9612 30.4093H63.9248L69.2349 7.83334H58.273Z" fill="#2E2A2B"/>
</svg>
