<svg width="85" height="35" viewBox="0 0 85 35" fill="none" xmlns="http://www.w3.org/2000/svg">
<path d="M17.4536 35C27.085 35 34.9073 27.1738 34.9073 17.5039C34.9073 7.83341 27.085 0 17.4536 0C7.8074 0 0 7.83341 0 17.5039C0 27.1738 7.8074 35 17.4536 35Z" fill="#2E2A2B"/>
<path d="M21.6165 25.1777V23.797H18.1538V9.82223H16.7516V25.1777H21.6165ZM11.8804 14.0119C13.0378 14.0119 13.9708 13.0676 13.9708 11.9144C13.9708 10.7602 13.0378 9.81226 11.8804 9.81226C10.723 9.81226 9.79004 10.7602 9.79004 11.9144C9.79004 13.0685 10.723 14.0119 11.8804 14.0119Z" fill="white"/>
<path d="M18.1534 2.8567C17.971 2.84763 17.6242 2.8363 17.4584 2.8363C9.40222 2.8363 2.8457 9.41769 2.8457 17.4967C2.8457 21.4209 4.36528 25.099 7.11767 27.865C9.88135 30.6246 13.5486 32.1494 17.4584 32.1494C21.3533 32.1494 25.0197 30.6246 27.7784 27.865C30.5376 25.099 32.0644 21.4209 32.0644 17.4967V16.8446H21.6302V18.1941H30.6726C30.6726 18.2235 30.6726 18.3667 30.6663 18.4039C30.2066 25.3106 24.458 30.7809 17.4584 30.7809C13.9153 30.7809 10.593 29.3984 8.09263 26.8876C5.5841 24.3871 4.2018 21.0561 4.2018 17.4963C4.2018 13.9568 5.5841 10.6085 8.09263 8.10042C10.593 5.59456 13.9153 4.21203 17.4584 4.21203C17.6111 4.21203 17.9823 4.21203 18.1534 4.2211V2.8567Z" fill="white"/>
<path d="M50.4972 5.35692H44.9072V29.6397H62.0765V24.9129H50.4972V5.35692ZM74.3735 20.386H78.9263V24.6318C78.0869 24.9525 76.4499 25.2722 74.8924 25.2722C69.8613 25.2722 68.1853 22.7081 68.1853 17.5002C68.1853 12.5339 69.7814 9.60561 74.8125 9.60561C77.6084 9.60561 79.2054 10.4875 80.5213 12.1707L83.9969 8.96422C81.8801 5.92151 78.1658 5 74.6931 5C66.8651 5 62.7533 9.28685 62.7533 17.4597C62.7533 25.5929 66.4666 30 74.6537 30C78.4065 30 82.0803 29.0389 84.0758 27.6368V15.8572H74.3735V20.386Z" fill="#2E2A2B"/>
</svg>
