<svg width="127" height="39" viewBox="0 0 127 39" fill="none" xmlns="http://www.w3.org/2000/svg">
<path d="M0 27.0057V0.55896H4.65986V27.0055L0 27.0057ZM16.5882 7.81958C10.6136 7.81958 6.47905 12.3993 6.47905 17.6412C6.47905 23.4915 10.9769 27.5215 16.6345 27.5215C22.0039 27.5215 26.6633 23.5655 26.6633 17.6286C26.6633 12.6361 22.8024 7.81958 16.588 7.81958H16.5882ZM16.5332 12.3012C19.6599 12.3012 21.9613 14.7276 21.9613 17.658C21.9613 20.7651 19.4239 23.0316 16.6176 23.0316C13.3017 23.0316 11.2149 20.4115 11.2149 17.6663C11.2149 14.6574 13.5709 12.3012 16.5332 12.3012ZM38.3712 7.81958C32.3967 7.81958 28.2623 12.3993 28.2623 17.6412C28.2623 23.4915 32.7601 27.5215 38.4177 27.5215C43.7871 27.5215 48.4465 23.5655 48.4465 17.6286C48.4465 14.1325 46.9278 12.5811 46.9278 12.5811L48.2194 12.1395V8.36911H41.6011C41.6011 8.36911 40.1663 7.81958 38.3712 7.81958ZM38.3164 12.3012C41.4431 12.3012 43.7444 14.7276 43.7444 17.658C43.7444 20.7651 41.2071 23.0316 38.4008 23.0316C35.0849 23.0316 32.998 20.4115 32.998 17.6663C32.998 14.6574 35.3541 12.3012 38.3164 12.3012ZM43.7115 28.2983C43.7115 31.4054 41.1741 33.6888 38.3678 33.6888C35.052 33.6888 32.9567 31.0435 32.9567 28.2983H28.2293C28.2293 34.1487 32.7271 38.1788 38.3847 38.1788C43.7542 38.1788 48.4135 34.2354 48.4135 28.2983H43.7115ZM50.3129 27.0057V8.36911H54.9728V27.0056L50.3129 27.0057ZM59.4976 27.0057V12.5435H56.9988V8.36911H59.4976V2.6463H64.1574V8.36911H66.7238V12.5435H64.1575V27.0056L59.4976 27.0057Z" fill="#2E2A2B"/>
<path d="M52.6335 6.15255C54.3377 6.15255 55.7192 4.77526 55.7192 3.07628C55.7192 1.3773 54.3377 0 52.6335 0C50.9294 0 49.5479 1.3773 49.5479 3.07628C49.5479 4.77526 50.9294 6.15255 52.6335 6.15255Z" fill="#2E2A2B"/>
<path d="M77.1999 7.80697C71.1969 7.80697 67.3271 12.389 67.3271 17.8095C67.3271 23.4109 71.2098 27.5342 77.297 27.5342C82.975 27.5342 85.7682 23.9995 85.7682 23.9995L82.6531 20.8897C82.6531 20.8897 80.3012 23.4187 77.3559 23.4187C74.9008 23.4187 72.9378 22.0526 72.253 19.5474H86.7726V18.2681C86.7726 13.1638 83.8094 7.80697 77.1997 7.80697H77.1999ZM77.0521 11.8973C79.1986 11.8973 81.394 13.0421 81.8848 15.777H72.1263C72.5127 13.8546 74.1998 11.8972 77.052 11.8972L77.0521 11.8973ZM98.4284 27.5366C92.4087 27.5366 88.3068 22.9656 88.3068 17.5762C88.3068 12.0144 92.9426 7.80344 98.4092 7.80344C103.694 7.80344 106.399 11.5228 106.399 11.5228L103.148 14.7487C103.148 14.7487 101.265 12.3233 98.387 12.3233C95.1972 12.3233 93.0162 14.7559 93.0162 17.6476C93.0162 20.7008 95.3363 23.0434 98.3511 23.0434C101.276 23.0434 103.143 20.6217 103.143 20.6217L106.427 23.8461C106.427 23.8461 103.748 27.5366 98.4284 27.5366ZM108.122 27.0191V0.491699H112.782V10.238C112.782 10.238 114.566 7.80344 118.447 7.80344C123.327 7.80344 126.154 11.4197 126.154 16.0445V27.0191H121.494V16.7466C121.494 13.6396 119.553 12.3504 117.404 12.3504C114.955 12.3504 112.782 13.74 112.782 16.9871V27.0191H108.122Z" fill="#2E2A2B"/>
</svg>
