<svg width="137" height="25" viewBox="0 0 137 25" fill="none" xmlns="http://www.w3.org/2000/svg">
<path d="M46.2522 0.501297H38.9272V10.0396H31.302V0.501297H23.9769V24.4987H31.302V15.0593H38.9272V24.4987H46.2522V0.501297ZM71.7331 19.6767V0.501297H64.408V24.4987H77.6531L78.7546 19.6767H71.7331ZM58.9926 0.501297H51.6676V24.4987H58.9926V0.501297ZM88.6884 0.501297H81.3668V24.4987H88.6884V0.501297ZM124.802 6.62597C124.802 5.31987 126.108 4.71628 128.212 4.71628C130.521 4.71628 133.031 5.22098 134.736 5.92689L134.136 0.702496C132.226 0.300095 130.521 0 127.414 0C121.494 0 117.481 2.33598 117.481 7.22958C117.481 15.6629 128.922 13.9579 128.922 17.8727C128.922 19.3766 127.813 20.178 125.106 20.178C122.702 20.178 118.984 19.3766 116.778 18.2717L117.583 23.7962C119.789 24.601 122.797 25 125.208 25C131.326 25 136.342 22.9914 136.342 16.9656C136.342 8.93807 124.802 10.442 124.802 6.62597ZM104.14 18.7764C110.957 18.7764 115.274 15.2605 115.274 9.13587C115.274 2.411 110.66 0 103.134 0C100.225 0 96.7126 0.2012 94.2061 0.501297V24.4987H101.531V18.7764H104.14ZM108.051 9.23817C108.051 12.3482 106.548 14.4591 102.732 14.4591H101.531V4.54236C101.957 4.51849 102.356 4.51848 102.732 4.51848C106.343 4.51848 108.051 6.22357 108.051 9.23817ZM9.93384 18.7764C16.7542 18.7764 21.0681 15.2605 21.0681 9.13587C21.0681 2.411 16.4541 0 8.93125 0C6.01896 0 2.50989 0.2012 0 0.501297V24.4987H7.32506V18.7764H9.93384ZM13.8487 9.23817C13.8487 12.3482 12.3414 14.4591 8.52885 14.4591H7.32506V4.54236C7.75133 4.51849 8.15373 4.51848 8.52885 4.51848C12.1402 4.51848 13.8487 6.22357 13.8487 9.23817Z" fill="#2E2A2B"/>
</svg>
