<svg width="164" height="25" viewBox="0 0 164 25" fill="none" xmlns="http://www.w3.org/2000/svg">
<path d="M10.8229 17.5148C11.0473 18.0784 10.9761 18.8007 10.8667 19.2384C10.6752 20.0154 10.1499 20.8088 8.59597 20.8088C7.14051 20.8088 6.2541 19.9661 6.2541 18.6967V16.4369H0V18.2316C0 23.4297 4.08733 25.0001 8.47012 25.0001C12.6833 25.0001 16.1523 23.5665 16.705 19.6761C16.9895 17.6626 16.7816 16.3439 16.6831 15.8569C15.6982 10.9762 6.85599 9.52073 6.19392 6.79038C6.10198 6.38773 6.09453 5.9704 6.17203 5.56472C6.33618 4.81511 6.84504 3.99983 8.3005 3.99983C9.66842 3.99983 10.4618 4.84247 10.4618 6.11189V7.55641H16.2782V5.91491C16.2782 0.837213 11.7203 0.0438232 8.42635 0.0438232C4.27884 0.0438232 0.89188 1.41721 0.273583 5.22001C0.109433 6.25963 0.0820749 7.18981 0.328299 8.36074C1.34056 13.1211 9.61917 14.4999 10.8229 17.5148Z" fill="#2E2A2B"/>
<path d="M24.9505 0.787942L20.6279 24.0917H26.9258L30.1158 2.94377H30.2471L33.3495 24.0917H39.6146L35.3193 0.782471L24.9505 0.787942ZM60.1607 0.787942L57.288 18.6037H57.1512L54.2841 0.787942H44.7798L44.2655 24.0917H50.0983L50.2405 3.14075H50.3719L54.2622 24.0917H60.1771L64.0729 3.14623H64.1987L64.3465 24.0917H70.1738L69.6594 0.782471L60.1607 0.787942Z" fill="#2E2A2B"/>
<path d="M86.5895 17.471C86.8139 18.0346 86.7427 18.7568 86.6333 19.1946C86.4418 19.9715 85.9165 20.7649 84.3626 20.7649C82.9071 20.7649 82.0207 19.9223 82.0207 18.6529V16.3931H75.7666V18.1878C75.7666 23.3859 79.8539 24.9562 84.2367 24.9562C88.4499 24.9562 91.9189 23.5227 92.4716 19.6323C92.7561 17.6187 92.5482 16.3001 92.4497 15.8131C91.4648 10.9324 82.6226 9.47691 81.9605 6.74655C81.8686 6.34391 81.8611 5.92657 81.9386 5.5209C82.1028 4.77129 82.6116 3.95601 84.0671 3.95601C85.435 3.95601 86.2284 4.79864 86.2284 6.06807V7.51258H92.0448V5.87109C92.0448 0.79339 87.4869 0 84.193 0C80.0454 0 76.6585 1.37339 76.0402 5.17619C75.876 6.2158 75.8487 7.14598 76.0949 8.31692C77.1072 13.0773 85.3858 14.4561 86.5895 17.471Z" fill="#2E2A2B"/>
<path d="M106.15 20.6008C107.769 20.6008 108.267 19.4846 108.382 18.9155C108.431 18.6638 108.437 18.3246 108.437 18.0236V0.78791H114.335V17.4929C114.336 18.0041 114.318 18.5151 114.28 19.0249C113.87 23.3749 110.434 24.7866 106.15 24.7866C101.86 24.7866 98.4236 23.3749 98.0132 19.0249C97.9968 18.7951 97.953 17.9197 97.9585 17.4929V0.782439H103.857V18.0182C103.851 18.3246 103.862 18.6638 103.912 18.9155C104.021 19.4846 104.524 20.6008 106.15 20.6008ZM134.646 0.78791L134.963 19.0797H134.837L129.475 0.78791H120.83V23.8455H126.559L126.241 4.91901H126.367L132.118 23.8455H140.419V0.78791H134.646ZM154.754 20.36C156.44 20.36 157.03 19.2931 157.134 18.6638C157.184 18.4066 157.189 18.0783 157.189 17.7883V14.3959H154.798V11.0035H163.055V17.2521C163.055 17.6899 163.044 18.0072 162.973 18.7842C162.59 23.0302 158.907 24.5458 154.776 24.5458C150.645 24.5458 146.968 23.0302 146.58 18.7842C146.514 18.0072 146.498 17.6899 146.498 17.2521V7.44692C146.498 7.03107 146.552 6.29787 146.596 5.91485C147.116 1.55394 150.645 0.153198 154.776 0.153198C158.907 0.153198 162.53 1.543 162.956 5.90938C163.033 6.65353 163.011 7.44145 163.011 7.44145V8.22389H157.134V6.91617C157.134 6.91617 157.134 6.369 157.063 6.02976C156.954 5.51542 156.516 4.33354 154.732 4.33354C153.036 4.33354 152.538 5.45523 152.412 6.02976C152.341 6.33617 152.314 6.75202 152.314 7.12956V17.7829C152.314 18.0783 152.325 18.4066 152.369 18.6693C152.478 19.2931 153.069 20.36 154.754 20.36Z" fill="#2E2A2B"/>
</svg>
