<svg width="142" height="25" viewBox="0 0 142 25" fill="none" xmlns="http://www.w3.org/2000/svg">
<path d="M50.5874 24.9997C45.4436 24.9997 40.6687 23.4571 37.4815 20.5964C35.0735 18.4351 33.9164 15.4993 33.9164 12.4778C33.9164 9.49297 35.1234 6.53699 37.4812 4.38707C40.4412 1.68942 45.6671 0 50.5874 0C56.0323 0 60.3903 1.3715 63.7218 4.39449C66.0921 6.54554 67.2381 9.48841 67.2381 12.478C67.2381 15.3759 66.022 18.4619 63.7218 20.5964C60.6195 23.4757 55.7443 24.9997 50.5874 24.9997V21.7024C53.3175 21.7024 55.8501 20.7598 57.6188 18.9999C59.3752 17.252 60.1935 15.1036 60.1935 12.4778C60.1935 9.96231 59.3108 7.61052 57.6188 5.94248C55.8738 4.22369 53.2808 3.25652 50.5874 3.25652C47.8857 3.25652 45.291 4.21371 43.5446 5.94248C41.8617 7.60995 40.9766 9.96858 40.9766 12.4778C40.9766 14.9792 41.872 17.3364 43.5446 19.0002C45.2924 20.739 47.878 21.7024 50.5874 21.7024V24.9997ZM12.9913 0.0119756C10.2397 0.0119756 7.11381 0.526643 4.45779 1.7128C2.00649 2.80658 5.80953e-07 4.57555 5.80953e-07 7.50815C-0.00113996 10.1494 1.67745 11.6962 1.63182 11.6534C2.3458 12.3107 3.49518 13.4298 6.50021 14.0871C7.84319 14.3807 10.7145 14.8318 13.5738 15.1306C16.412 15.43 19.2052 15.7146 20.3429 16.0026C21.2468 16.2327 22.7651 16.5461 22.7651 18.2494C22.7651 19.946 21.1655 20.4638 20.8875 20.5761C20.6098 20.6859 18.6908 21.5664 15.2413 21.5664C12.6945 21.5664 9.63269 20.8005 8.51667 20.4014C7.23015 19.9434 5.88061 19.3378 4.62174 17.8001C4.30866 17.4188 3.81481 16.3704 3.81481 15.3322H0.692877V24.0802H4.16296V22.8983C4.16296 22.7637 4.33119 22.2102 4.91372 22.4734C5.63853 22.8028 7.7662 23.6499 9.99082 24.1144C11.8148 24.4959 12.991 24.7693 15.2587 24.7693C18.9586 24.7693 20.9462 24.1666 22.3203 23.7742C23.6148 23.4035 25.2144 22.738 26.5138 21.7019C27.2175 21.1416 28.7606 19.7053 28.7606 17.0984C28.7606 14.596 27.4177 13.0429 26.9452 12.5704C26.3016 11.9266 25.5155 11.4276 24.6963 11.043C23.9826 10.7071 22.8564 10.3036 21.9348 10.0781C20.1462 9.63896 16.1018 9.09721 14.1678 8.89476C12.1396 8.68291 8.62132 8.3915 7.21618 7.95667C6.79019 7.82465 5.92167 7.41092 5.92167 6.40269C5.92167 5.68558 6.31886 5.07767 7.10383 4.58638C8.34987 3.80569 10.8668 3.32039 13.4903 3.32039C16.592 3.30898 19.2186 4.01811 20.8895 4.76516C21.4578 5.01893 22.1227 5.38333 22.6508 5.81446C23.2467 6.30033 24.0833 7.30999 24.3858 8.71826H27.1887V1.10347H24.0591V1.98853C24.0591 2.27423 23.7639 2.64548 23.2059 2.33867C21.8054 1.60388 17.8454 0.0185337 12.9907 0.0119756M81.5758 1.39573L96.8424 15.1734L96.6856 5.89715C96.6702 4.68076 96.4461 4.17294 95.1305 4.17294H92.26V1.39801H105.313V4.17294H102.513C101.172 4.17294 101.087 4.60207 101.071 5.89715L101.307 23.6219H96.837L79.2528 7.92816L79.2565 19.0661C79.2719 20.2767 79.3286 20.847 80.5761 20.847H83.7111V23.6208H70.8915V20.8473H73.8883C75.0077 20.8473 74.9632 19.78 74.9632 19.0031V6.00265C74.9632 5.1635 74.8455 4.17494 73.0879 4.17494H70.6563V1.39573H81.5758ZM120.23 20.8419C120.352 20.8419 120.897 20.8262 121.002 20.794C121.304 20.6999 121.508 20.4849 121.603 20.2608C121.643 20.1667 121.663 19.7504 121.663 19.66L121.665 15.2746C121.665 15.1691 121.657 15.1235 121.478 14.8886C121.282 14.6319 113.482 5.79279 113.125 5.40358C112.681 4.92028 111.903 4.17322 110.72 4.17322H108.008V1.39716H123.316V4.1698H121.47C121.043 4.1698 120.76 4.57469 121.124 5.02464C121.124 5.02464 126.275 11.1855 126.324 11.25C126.371 11.3156 126.413 11.3312 126.478 11.2714C126.543 11.2101 131.758 5.08109 131.799 5.03262C132.047 4.73551 131.879 4.17294 131.344 4.17294H129.451V1.39716H141.997V4.17294H139.194C138.177 4.17294 137.763 4.36113 136.998 5.22594C136.649 5.62171 128.765 14.6197 128.551 14.8635C128.439 14.9909 128.448 15.1686 128.448 15.2741V19.6589C128.448 19.7478 128.468 20.1647 128.508 20.2582C128.603 20.4835 128.809 20.6985 129.11 20.7914C129.215 20.8239 129.753 20.8399 129.875 20.8399H132.742V23.6154H117.513V20.8396L120.23 20.8419H120.23Z" fill="#2E2A2B"/>
</svg>
